<svg width="100" height="40" viewBox="0 0 100 40" fill="none" xmlns="http://www.w3.org/2000/svg">
<path fill-rule="evenodd" clip-rule="evenodd" d="M93.1934 32.2511C91.9394 31.9494 90.7634 30.8963 92.0994 29.6953C92.4854 29.3476 93.0974 28.998 93.9354 28.6483C92.6134 28.3485 91.5614 27.2934 91.5614 25.8127C91.5614 23.8025 93.2234 22.8394 95.0614 22.8394C95.1154 22.8394 95.4414 22.8613 96.0374 22.9013C97.0714 22.9712 98.0994 22.9652 99.1354 22.9652V23.6866H97.2494C98.2334 24.6058 98.3434 26.638 97.3614 27.6471C96.8974 28.1247 96.1554 28.4664 95.1654 28.6882C94.5174 28.8281 92.7054 29.3257 92.7054 30.2269C92.7054 30.6645 93.3734 31.0222 94.7054 31.2959C95.8914 31.5197 97.4554 31.7815 98.4254 32.4569C98.8954 32.7846 99.1334 33.2362 99.1334 33.8077C99.1334 34.601 98.6974 35.3584 97.7714 35.9239C96.2234 36.867 93.4174 37.1608 91.7554 36.1797C90.6034 35.5002 90.3474 34.2334 91.3234 33.2842C91.7234 32.8925 92.3494 32.5468 93.1914 32.2451L93.1934 32.2511ZM93.8334 32.395C93.0354 32.6008 91.6034 33.1503 91.6034 34.1754C91.6034 36.2916 96.0154 36.3575 97.3934 35.6181C98.6654 34.9367 98.5194 33.7638 97.2574 33.1743C96.5954 32.8666 95.4514 32.6028 93.8314 32.395H93.8334ZM94.8174 28.3225C96.2314 28.3225 96.6694 26.9617 96.6954 25.7688C96.7254 24.3201 96.2114 23.1851 94.8154 23.215C93.4134 23.245 92.9314 24.5838 92.9314 25.7688C92.9314 26.9557 93.4114 28.3225 94.8154 28.3225H94.8174Z" fill="#161616"/>
<path fill-rule="evenodd" clip-rule="evenodd" d="M83.8182 28.8977C83.8182 29.8629 84.0462 30.2825 85.0442 30.3404L85.0342 30.6322C83.7062 30.5842 82.4002 30.6322 81.0742 30.6322V30.3404C82.1142 30.3185 82.3842 29.9088 82.3842 28.8977V25.151C82.3842 24.4896 82.2942 24.03 82.1162 23.7762C81.8742 23.4305 81.4582 23.3925 81.0742 23.3925V23.1008C81.9902 23.0468 82.9082 22.9849 83.8182 22.861V24.4196C84.7582 23.1827 87.2722 21.8839 88.5242 23.6923C89.3962 24.9492 89.1182 27.393 89.1182 28.8997C89.1182 29.9128 89.3882 30.3205 90.4282 30.3424V30.6342C89.1022 30.6342 87.7962 30.5862 86.4682 30.6342L86.4582 30.3424C87.4522 30.2845 87.6842 29.8629 87.6842 28.8997C87.6842 27.6808 87.9502 25.2469 87.2842 24.2198C86.7482 23.3905 85.6202 23.4985 84.8742 23.9401C84.4962 24.1659 84.1442 24.4996 83.8182 24.9332V28.8977Z" fill="#161616"/>
<path fill-rule="evenodd" clip-rule="evenodd" d="M79.0108 22.8374L79.0188 28.8981C79.0188 29.4416 79.1068 29.8133 79.2768 30.0091C79.4468 30.2029 79.7688 30.3148 80.2368 30.3428V30.6346C78.8928 30.6066 77.5588 30.5886 76.2148 30.6346L76.2228 30.3428C76.7228 30.3308 77.0688 30.2249 77.2548 30.0311C77.4408 29.8333 77.5328 29.4576 77.5328 28.9001V25.1554C77.5328 24.1263 77.4208 23.3949 76.2228 23.3949L76.2348 23.0912C77.1628 23.0532 78.0888 22.9653 79.0108 22.8374Z" fill="#161616"/>
<path fill-rule="evenodd" clip-rule="evenodd" d="M72.9041 20.4116V23.0053H75.4601V23.5828H72.9041V27.5314C72.9041 28.4666 73.0161 29.122 73.2381 29.4976C73.7861 30.4288 75.0521 30.1111 75.7821 29.5936L75.9301 29.7814C74.9721 30.7525 72.9381 31.5878 71.9801 30.1311C71.6401 29.6195 71.4701 28.8142 71.4701 27.7192V23.5828H70.0781V23.2611C70.6641 22.9414 71.1621 22.5398 71.5721 22.0582C71.9821 21.5766 72.3001 21.0251 72.5161 20.4116H72.9041Z" fill="#161616"/>
<path fill-rule="evenodd" clip-rule="evenodd" d="M66.6958 19.3005C66.6958 18.2574 66.5377 17.5421 65.3438 17.5421V17.2383C66.2817 17.2104 67.2218 17.0905 68.1517 16.9766V28.8981C68.1517 29.4416 68.2357 29.8133 68.4057 30.0091C68.5757 30.203 68.9018 30.3149 69.3777 30.3428L69.3677 30.6346C68.0177 30.6046 66.6958 30.5886 65.3458 30.6346V30.3428C65.8598 30.3308 66.2158 30.2229 66.4078 30.0211C66.5998 29.8193 66.6977 29.4436 66.6977 28.9001V19.3005H66.6958Z" fill="#161616"/>
<path fill-rule="evenodd" clip-rule="evenodd" d="M62.0098 25.1514C62.0098 24.49 61.9198 24.0304 61.7418 23.7766C61.4998 23.4309 61.0838 23.3929 60.6998 23.3929L60.6898 23.0892C61.6178 23.0492 62.5458 22.9633 63.4658 22.8374V28.4904C63.4658 29.1519 63.5558 29.6115 63.7378 29.8632C63.9818 30.2069 64.3918 30.2469 64.7778 30.2469V30.5506C63.8538 30.5946 62.9278 30.6565 62.0118 30.7824V29.3277C61.2758 30.147 60.2918 30.7605 59.1618 30.7605C57.1218 30.7605 56.7338 28.978 56.7338 27.2995V25.1534C56.7338 24.492 56.6438 24.0304 56.4658 23.7766C56.2218 23.4289 55.8078 23.3929 55.4238 23.3929V23.0892C56.3438 23.0452 57.2558 22.9693 58.1678 22.8374L58.1758 27.4254C58.1758 28.5584 58.3418 29.9971 59.8018 29.9971C60.6858 29.9971 61.4778 29.4636 62.0118 28.7942V25.1514H62.0098Z" fill="#161616"/>
<path fill-rule="evenodd" clip-rule="evenodd" d="M49.4004 30.7845V28.1648H49.7044C49.8144 28.8902 50.0884 29.4637 50.5144 29.8793C50.9444 30.297 51.4664 30.5088 52.0804 30.5088C52.9184 30.5088 53.6004 29.9992 53.6004 29.118C53.6004 27.7392 50.7424 27.1477 49.9224 26.1686C49.6444 25.8349 49.5044 25.4192 49.5044 24.9337C49.5044 24.3342 49.7324 23.8346 50.1804 23.439C50.6284 23.0393 51.2044 22.8395 51.8924 22.8395C52.1544 22.8395 52.4624 22.8895 52.8044 22.9874C53.1464 23.0853 53.3564 23.1352 53.4344 23.1352C53.6684 23.1352 53.8624 23.0473 53.9044 22.7995L54.1264 22.7896V25.0196H53.8224C53.6464 23.9985 52.9924 23.1772 51.8904 23.1772C50.7884 23.1772 50.0464 24.2563 50.8364 25.0775C51.7024 25.9768 53.2664 26.1026 54.1544 27.1217C54.4884 27.5054 54.6584 27.977 54.6584 28.5345C54.6584 29.9493 53.4224 30.8765 52.0804 30.8765C51.3744 30.8765 50.7084 30.4508 50.1524 30.3949C49.9004 30.3689 49.7164 30.4968 49.6604 30.7905L49.4004 30.7845Z" fill="#161616"/>
<path fill-rule="evenodd" clip-rule="evenodd" d="M41.961 30.009C42.137 30.2028 42.459 30.3147 42.927 30.3427L42.917 30.6345C41.611 30.5865 40.327 30.5945 39.019 30.6345H38.959V30.3427C39.459 30.3307 39.805 30.2248 39.991 30.031C40.177 29.8332 40.271 29.4575 40.271 28.9V25.1533C40.271 24.4919 40.181 24.0323 40.003 23.7785C39.761 23.4328 39.345 23.3948 38.961 23.3948V23.1031C39.877 23.0491 40.795 22.9872 41.705 22.8633V24.4219C42.439 23.5727 43.413 22.8413 44.583 22.8413C46.631 22.8413 47.005 24.6497 47.005 26.3263V28.902C47.005 29.9151 47.275 30.3227 48.315 30.3447V30.6365C48.301 30.6365 48.279 30.6365 48.253 30.6365C46.947 30.5965 45.663 30.5885 44.357 30.6365L44.347 30.3447C45.341 30.2868 45.573 29.8651 45.573 28.902V26.2004C45.573 25.0374 45.403 23.6026 43.915 23.6026C42.993 23.6026 42.235 24.2341 41.707 24.9335C41.701 25.8307 41.391 29.3656 41.961 30.009Z" fill="#161616"/>
<path fill-rule="evenodd" clip-rule="evenodd" d="M29.4395 26.8678C29.4395 24.5758 31.3675 22.8394 33.6175 22.8394C35.8775 22.8394 37.7975 24.5638 37.7975 26.8678C37.7975 29.1798 35.8835 30.8963 33.6175 30.8963C31.3755 30.8963 29.4395 29.1518 29.4395 26.8678ZM31.0835 26.8678C31.0835 28.4205 31.7095 30.5306 33.6175 30.5306C35.5375 30.5306 36.1535 28.4324 36.1535 26.8678C36.1535 25.2872 35.5615 23.193 33.6175 23.193C31.6755 23.193 31.0835 25.2892 31.0835 26.8678Z" fill="#161616"/>
<path fill-rule="evenodd" clip-rule="evenodd" d="M17.0013 12.4543V14.035C17.6193 13.4774 18.1533 13.0698 18.5913 12.816C19.3913 12.3544 20.0773 12.3205 20.8673 12.7581L20.2493 14.1169C19.8713 13.963 19.5633 13.8551 19.3213 13.7892C18.7893 13.6433 18.3273 13.6473 17.8213 13.9071C17.5393 14.0549 17.2633 14.2688 17.0013 14.5465V18.493C17.0013 19.5481 17.2813 19.9258 18.3533 19.9258V20.2295C17.7673 20.2095 17.3273 20.1976 17.0433 20.1936C16.5013 20.1876 15.9633 20.1896 15.4213 20.1995C15.1293 20.2055 14.7213 20.2195 14.2073 20.2295L14.1973 19.9378C15.2353 19.8998 15.5493 19.5281 15.5493 18.495V14.7443C15.5493 13.7012 15.3933 12.9859 14.1973 12.9859V12.6941C15.1333 12.6362 16.0673 12.5563 17.0013 12.4543ZM49.1633 18.7948C48.3433 19.8678 47.2273 20.4893 45.8633 20.4893C43.5113 20.4893 41.7893 18.7308 41.7893 16.3889C41.7893 14.1309 43.4233 12.4004 45.7053 12.4004C47.5913 12.4004 48.9233 13.5794 48.9973 15.4857H43.3093C43.3093 17.5179 44.0973 19.9038 46.5233 19.9038C47.5313 19.9038 48.3453 19.3143 48.9533 18.557L49.1633 18.7948ZM43.3073 15.08H47.4653C47.4553 13.8551 46.8493 12.7461 45.4953 12.7461C44.1193 12.7461 43.5053 13.8631 43.3073 15.08ZM52.8273 12.4543V14.035C53.4453 13.4774 53.9793 13.0698 54.4173 12.816C54.9633 12.5003 55.5153 12.3305 56.1293 12.5123C56.3073 12.5642 56.4953 12.6482 56.6933 12.7581L56.0753 14.1169C55.5973 13.9231 55.0253 13.6873 54.5013 13.6873C53.8413 13.6873 53.2633 14.0829 52.8273 14.5465V18.493C52.8273 19.0645 52.9233 19.4462 53.1093 19.638C53.2953 19.8299 53.6533 19.9258 54.1793 19.9258V20.2295C52.7873 20.1836 51.4213 20.1995 50.0313 20.2295L50.0213 19.9378C50.5433 19.9198 50.9013 19.8059 51.0873 19.6101C51.2753 19.4122 51.3713 19.0386 51.3713 18.495V14.7443C51.3713 13.7012 51.2153 12.9859 50.0193 12.9859V12.6941C50.9573 12.6362 51.8933 12.5563 52.8273 12.4543Z" fill="#161616"/>
<path d="M41.0402 1.5H21.3262V21.1967H41.0402V1.5Z" fill="#E12921"/>
<path fill-rule="evenodd" clip-rule="evenodd" d="M24.4024 19.1148C25.3384 20.4596 27.1344 20.4696 28.0744 19.1208C29.0244 17.754 29.0284 15.1463 28.0804 13.7815C27.1524 12.4466 25.3204 12.4486 24.3944 13.7815C23.4424 15.1503 23.4544 17.744 24.4024 19.1148ZM23.2804 13.6156C24.9184 12.035 27.5564 12.027 29.1964 13.6096C30.8244 15.1822 30.8324 17.738 29.2024 19.3126C27.5664 20.8992 24.9184 20.8872 23.2844 19.3046C21.6524 17.718 21.6384 15.2022 23.2804 13.6156ZM33.7664 16.1174L36.0384 14.275C36.3524 14.0033 36.7204 13.4797 36.2264 13.156C36.0684 13.0521 35.8524 12.9901 35.5864 12.9762V12.6944C36.9104 12.6944 38.2324 12.6944 39.5564 12.6944V12.9762C39.0824 13.0041 38.6444 13.0961 38.2484 13.2439C37.1024 13.6676 36.0244 14.7966 35.0944 15.5619C36.3044 16.7429 38.0604 19.0009 39.5464 19.7162C39.7904 19.8341 40.0504 19.9041 40.3244 19.9241V20.2278C39.5184 20.1998 38.7564 20.1838 37.9464 20.2278H37.8844L33.9984 16.3452L33.7684 16.545V18.4913C33.7684 19.0408 33.8544 19.4125 34.0184 19.6043C34.1864 19.7962 34.5024 19.9061 34.9624 19.9241V20.2278C33.6344 20.1798 32.3284 20.2278 31.0024 20.2278V19.9361C31.5104 19.9181 31.8584 19.8102 32.0384 19.6183C32.2184 19.4265 32.3124 19.0488 32.3124 18.4913V8.89774C32.3124 7.86864 32.1984 7.13728 31.0024 7.13728V6.87551C31.9304 6.81956 32.8504 6.72564 33.7684 6.57178V16.1174H33.7664Z" fill="white"/>
<path fill-rule="evenodd" clip-rule="evenodd" d="M27.8889 34.5051C26.6709 37.1168 24.2389 38.4137 21.4069 38.4137C17.0369 38.4137 13.7109 35.1745 13.7109 30.6465C13.7109 28.866 14.1889 27.1555 15.2169 25.6908C16.7969 23.4068 19.2469 22.2878 21.9969 22.2878C22.8069 22.2878 23.6909 22.4077 24.6409 22.6475C25.5929 22.8873 26.0289 23.0491 26.2789 23.0092C26.7129 22.9392 26.9529 22.5775 27.0649 22.2139H27.3789V27.0256H27.0649C26.4789 24.348 24.6429 22.8253 21.8929 22.8253C17.8289 22.8253 15.9369 26.1364 15.9369 29.8372C15.9369 33.6738 18.0469 37.6044 22.3369 37.6044C24.6669 37.6044 26.3769 36.2735 27.4949 34.3093L27.8889 34.5051Z" fill="#161616"/>
<path fill-rule="evenodd" clip-rule="evenodd" d="M4.82925 19.3284V24.0522C4.82925 25.0973 4.98325 25.7787 5.28525 26.0784C5.58925 26.3822 6.19925 26.536 7.10525 26.536C9.32925 26.536 10.8133 25.2811 10.8133 23.0051C10.8133 20.3615 8.70725 19.3284 6.33525 19.3284H4.82925ZM0.78125 27.0436V26.6779C2.50325 26.6439 2.78525 25.3071 2.78525 23.8544V14.8583C2.78525 13.3916 2.51125 12.0827 0.78125 12.0428V11.6631H5.79525C8.22525 11.6631 12.1713 12.0687 12.1713 15.3399C12.1713 17.2961 10.4773 18.3892 8.81925 18.9627C10.9613 19.3503 13.1153 20.6212 13.1153 23.0571C13.1153 26.57 9.43925 27.0456 6.72325 27.0456H0.78125V27.0436ZM4.82925 12.3185V18.7629H6.38525C8.44525 18.7629 10.1953 17.7378 10.1953 15.4957C10.1953 13.0858 8.07525 12.2246 5.97725 12.2246C5.59325 12.2266 5.20725 12.2546 4.82925 12.3185Z" fill="#161616"/>
<path fill-rule="evenodd" clip-rule="evenodd" d="M60.14 8.81934C61.136 8.81934 61.948 9.63062 61.948 10.6258C61.948 11.6209 61.136 12.4322 60.14 12.4322C59.144 12.4322 58.332 11.6209 58.332 10.6258C58.332 9.63062 59.144 8.81934 60.14 8.81934ZM60.14 9.10708C59.302 9.10708 58.62 9.78849 58.62 10.6258C58.62 11.463 59.302 12.1444 60.14 12.1444C60.976 12.1444 61.66 11.463 61.66 10.6258C61.66 9.79048 60.978 9.10708 60.14 9.10708Z" fill="#161616"/>
<path fill-rule="evenodd" clip-rule="evenodd" d="M59.4141 11.5532V9.71484H60.1961C60.5641 9.71484 60.8941 9.84673 60.8981 10.2344C60.9021 10.5561 60.7201 10.7 60.4321 10.7419C60.6261 10.8558 60.7261 11.0057 60.8421 11.1955L61.0661 11.5532H60.6221C60.5041 11.3574 60.2681 10.8838 60.0461 10.8059C59.9661 10.7779 59.8681 10.7859 59.7841 10.7859V11.5532H59.4141ZM59.7861 10.5022L60.1581 10.5042C60.3301 10.5042 60.5361 10.4982 60.5361 10.2544C60.5361 10.0266 60.3101 10.0246 60.1401 10.0246H59.7861V10.5022Z" fill="#161616"/>
<path fill-rule="evenodd" clip-rule="evenodd" d="M78.0797 20.6973C78.6217 20.6973 79.0657 20.2557 79.0657 19.7122C79.0657 19.1707 78.6237 18.7271 78.0797 18.7271C77.5377 18.7271 77.0938 19.1687 77.0938 19.7122C77.0938 20.2557 77.5377 20.6973 78.0797 20.6973Z" fill="#161616"/>
</svg>
