<svg viewBox="0 0 2953 723" fill="none" xmlns="http://www.w3.org/2000/svg">
<path d="M364.204 0L291.025 136.133L223.804 103.821L257.842 330.158L150.604 220.383L137.012 280.808L18.725 255.271L53.6167 383.771L0 410.154L188.063 570.133L170.258 626.8H311.079L364.204 722.771L417.333 626.8H558.142L540.346 570.133L728.408 410.154L674.792 383.771L709.683 255.271L591.396 280.808L577.796 220.383L470.567 330.158L504.604 103.821L437.387 136.133L364.204 0Z" fill="#CC122C"/>
<path d="M828.191 181.219C828.191 90.2444 893.766 35.3236 977.366 35.3236C1020.4 35.3236 1052.77 49.6694 1073.67 67.2903L1053.18 122.207C1037.61 106.636 1012.61 92.6986 981.053 92.6986C932.699 92.6986 895.816 125.486 895.816 181.219C895.816 237.778 933.924 270.153 981.053 270.153C1013.02 270.153 1041.71 255.39 1056.46 239.415L1078.59 289.003C1057.69 309.899 1024.9 327.519 977.778 327.519C892.941 327.519 828.191 272.611 828.191 181.219Z" fill="#CC122C"/>
<path d="M1202.84 39.8341H1271.69L1378.24 322.605H1307.75L1288.9 266.459H1185.62L1166.78 322.605H1096.29L1202.84 39.8341ZM1271.28 214.009L1237.26 112.367L1203.25 214.009H1271.28Z" fill="#CC122C"/>
<path d="M1407.94 40.3075H1478.84L1600.14 230.462C1599.73 227.182 1598.91 196.445 1598.91 179.233V40.3075H1663.66V323.078H1595.63L1471.46 131.283C1471.87 134.566 1472.69 168.578 1472.69 185.795V323.078H1407.94V40.3075Z" fill="#CC122C"/>
<path d="M1799.11 39.8341H1867.97L1974.52 322.605H1904.02L1885.18 266.459H1781.9L1763.05 322.605H1692.57L1799.11 39.8341ZM1867.55 214.009L1833.53 112.367L1799.53 214.009H1867.55Z" fill="#CC122C"/>
<path d="M2005.97 39.8341H2101.87C2196.54 39.8341 2257.19 91.0591 2257.19 181.217C2257.19 271.376 2196.54 322.605 2101.87 322.605H2005.97V39.8341ZM2189.57 181.217C2189.57 132.047 2162.53 95.5633 2105.97 95.5633H2072.37V266.876H2105.97C2160.47 266.876 2189.57 232.447 2189.57 181.217Z" fill="#CC122C"/>
<path d="M2357.41 39.8295H2291.02V322.6H2357.41V39.8295Z" fill="#CC122C"/>
<path d="M2357.41 39.8295H2291.02V322.6H2357.41V39.8295Z" fill="#CC122C"/>
<path d="M2494.62 39.8341H2563.47L2670.02 322.605H2599.53L2580.68 266.459H2477.4L2458.56 322.605H2388.07L2494.62 39.8341ZM2563.06 214.009L2529.04 112.367L2495.03 214.009H2563.06Z" fill="#CC122C"/>
<path d="M2697.03 39.8358H2767.93L2889.24 229.99C2888.83 226.711 2888.01 195.973 2888.01 178.761V39.8358H2952.76V322.607H2884.73L2760.55 130.811C2760.96 134.094 2761.78 168.107 2761.78 185.323V322.607H2697.03V39.8358Z" fill="#CC122C"/>
<path d="M1054.82 399.76L995.811 585.815L936.794 399.76H853.194L831.877 682.531H897.869L908.111 489.102L969.581 682.531H1022.04L1083.51 489.102L1093.76 682.531H1159.74L1138.42 399.76H1054.82Z" fill="#002F6E"/>
<path d="M1199.64 400.274V683.045H1386.51V628.949H1266.03V564.612H1376.27V511.333H1266.03V454.374H1382.82V400.274H1199.64Z" fill="#002F6E"/>
<path d="M1427.15 399.76H1523.04C1617.72 399.76 1678.37 450.985 1678.37 541.143C1678.37 631.302 1617.72 682.531 1523.04 682.531H1427.15V399.76ZM1610.75 541.143C1610.75 491.968 1583.7 455.489 1527.14 455.489H1493.54V626.797H1527.14C1581.65 626.797 1610.75 592.372 1610.75 541.143Z" fill="#002F6E"/>
<path d="M1778.13 399.759H1711.74V682.53H1778.13V399.759Z" fill="#002F6E"/>
<path d="M1811.48 541.145C1811.48 450.17 1877.05 395.25 1960.65 395.25C2003.69 395.25 2036.06 409.595 2056.96 427.212L2036.47 482.133C2020.9 466.558 1995.9 452.625 1964.34 452.625C1915.99 452.625 1879.1 485.412 1879.1 541.145C1879.1 597.704 1917.21 630.07 1964.34 630.07C1996.31 630.07 2024.99 615.316 2039.74 599.341L2061.88 648.925C2040.98 669.825 2008.19 687.445 1961.07 687.445C1876.23 687.445 1811.48 632.533 1811.48 541.145Z" fill="#002F6E"/>
<path d="M2179.46 399.76L2072.92 682.531H2143.4L2162.25 626.385H2265.53L2284.38 682.531H2354.87L2248.32 399.76H2179.46ZM2213.89 472.294L2247.91 573.927H2179.88L2213.89 472.294Z" fill="#002F6E"/>
<path d="M2382.12 399.76V682.531H2546.45V628.435H2448.51V399.76H2382.12Z" fill="#002F6E"/>
</svg>
