<?xml version="1.0" encoding="utf-8"?>
<!-- Generator: Adobe Illustrator 25.2.3, SVG Export Plug-In . SVG Version: 6.00 Build 0)  -->
<svg version="1.1" id="Layer_1" xmlns="http://www.w3.org/2000/svg" xmlns:xlink="http://www.w3.org/1999/xlink" x="0px" y="0px"
	 viewBox="0 0 695.1 190.8" style="enable-background:new 0 0 695.1 190.8;" xml:space="preserve">
<style type="text/css">
	.st0{fill:#4E4D50;}
	.st1{fill:#FCB832;}
</style>
<g>
	<g>
		<g>
			<path class="st0" d="M10.7,79.4c0,14.3,1.1,41.6,43.8,41.6c11.3,0,20.3-1.4,28.1-2.9v-15.4c-6.8,1.2-17.6,2.4-28.1,2.4
				c-22.3,0-26.1-11.1-26.1-25.8V53.5c0-15.1,4.3-26.5,26.1-26.5c10.6,0,21.3,1.4,28.1,2.6V14c-7.8-1.5-16.6-2.9-28.1-2.9
				c-42.7,0-43.8,27.3-43.8,41.6C10.7,52.7,10.7,79.4,10.7,79.4z"/>
		</g>
		<g>
			<path class="st0" d="M158.9,72.4c0-10.7-0.7-31.3-33.9-31.3S91,61.7,91,72.4v17.2c0,10.8,0.9,31.3,34,31.3
				c33.2,0,33.9-20.5,33.9-31.3V72.4z M141.7,89.6c-0.1,13.1-5,16.3-16.6,16.3c-11.1,0-16.7-2.9-16.7-16.3V72.4
				c0-13.3,5.1-16.1,16.7-16.1c11.3,0,16.6,2.7,16.6,16.1V89.6z"/>
		</g>
		<g>
			<path class="st0" d="M218.2,103.6c-4.1,1.2-11.1,2.1-14.7,2.1c-12.3,0-15.5-4.4-15.5-16.1v-17c0-13.3,4.5-16.3,15.5-16.3
				c6.1,0,10.9,0.8,14.7,1.8V103.6z M201.1,41.1c-24.5,0.5-30.5,14.8-30.5,31.5v16.1c0,15.1,3.8,32.2,29.2,32.2
				c2.3,0,11.9-0.5,20.8-5.1l1.1,3.8h13.8V12.5h-17.3v31.2C214.2,42.5,209.1,41.1,201.1,41.1"/>
		</g>
		<g>
			<path class="st0" d="M311.9,85.8c0.4-4.7,0.7-8.7,0.7-12.4c0-25.5-11.6-32.4-30.3-32.4c-21,0-33.6,6.6-33.6,40.2
				c0,28.9,8.6,39.6,36.7,39.6c8.1,0,16.5-1.5,21.8-2.7v-14.5c-5.5,1.4-17,2.3-20.3,2.3c-11.6,0-21-1.1-21-20.2h46L311.9,85.8
				L311.9,85.8z M266.3,73.2c1-13.7,7-17,16-17c8.4,0,13.8,3.3,13.8,13.7c0,1.1,0,2.1-0.1,3.3H266.3z"/>
		</g>
		<g>
			<path class="st0" d="M338.3,43.8h-14v77.1h17.3V63.5c7.9-3,21-3.9,26.4-4.1v-17c-9.6,0.3-18.9,4.8-27.7,8.3L338.3,43.8z"/>
		</g>
		<g>
			<path class="st0" d="M374.8,116.1c8.7,3,16.7,4.5,23.7,4.5c23.4,0,31.2-6,31.2-22.1c0-10.8-3.5-16-13.8-21.1l-17.2-8.7
				c-4-2.1-5.2-2.7-5.2-6.6c0-3.6,2-5.9,12.8-5.9c0.7,0,12.3,0.1,20.1,3.2V44.1c-7.4-2.7-16-3.3-19.6-3.3
				c-24.2,0-30.6,6.8-30.6,20.5c0,11.4,4.3,16.4,15.3,22l13.5,6.8c3.8,2,7.2,3.8,7.2,8.1c0,5.9-2.5,7.2-13.8,7.2
				c-5.8,0-14.9-1.4-23.7-5.3v16H374.8z"/>
		</g>
		<g>
			<g>
				<polygon class="st1" points="475.1,12.8 475.1,119.9 535.4,119.9 535.4,104.1 492.8,104.1 492.8,12.8 				"/>
			</g>
			<g>
				<path class="st1" d="M541.5,89.3c0,14.8,3.7,31.6,29.1,31.6c2.6,0,11.6-0.6,20-5.1l1.1,3.8h13.8v-74
					c-10.6-3.2-19.9-4.5-30.8-4.5c-32.2,0-33.2,20.3-33.2,31.5L541.5,89.3L541.5,89.3z M558.9,73.2c0-11.9,2.7-16.9,15.5-16.9
					c3.7,0,9.5,0.5,13.8,1.2v45.8c-4,1.4-10.2,2.4-13.8,2.4c-12.3,0-15.2-4.4-15.5-16.3V73.2z"/>
			</g>
			<g>
				<path class="st1" d="M638,58.4c3.7-1.1,9.6-1.8,14.7-1.8c10.8,0,15.3,3,15.3,16.3v17c0,11.7-3.1,16.1-15.3,16.1
					c-2.3,0-10.2-0.1-14.7-0.8V58.4z M655.2,41.4c-8.1,0-13.2,1.4-17.2,2.6V12.8h-17.3V119c12.5,2,26,2.3,31.8,2.3
					c29.6,0,33-17,33-32.2V72.9C685.5,56.2,679.5,41.9,655.2,41.4"/>
			</g>
			<g>
				<rect x="9.4" y="160" class="st1" width="153.6" height="3.4"/>
			</g>
			<g>
				<rect x="531.9" y="160" class="st1" width="153.6" height="3.4"/>
			</g>
		</g>
	</g>
</g>
<g>
	<path class="st0" d="M192.7,144.4h3.4v34.7h-3.4V144.4z"/>
	<path class="st0" d="M230.8,144.4v3h-11.1v31.7h-3.4v-31.7h-11.1v-3H230.8z"/>
	<path class="st0" d="M278.5,179.1c-0.7-1.7-1.3-3.3-1.8-4.9c-0.6-1.6-1.1-3.1-1.6-4.6h-16.9c-0.6,1.5-1.1,3-1.7,4.6
		s-1.1,3.2-1.8,4.9h-3.5c1.3-3.6,2.6-7,3.7-10.1c1.2-3.1,2.3-6.1,3.4-8.8s2.2-5.5,3.4-8s2.3-5.1,3.5-7.7h3c1.2,2.6,2.4,5.1,3.5,7.7
		c1.1,2.6,2.2,5.2,3.3,8s2.3,5.7,3.4,8.8c1.2,3.1,2.4,6.5,3.8,10.1H278.5z M266.5,148.3c-1.3,2.9-2.5,5.8-3.7,8.8s-2.4,6.2-3.7,9.6
		H274c-1.3-3.4-2.5-6.6-3.7-9.6C269,154.1,267.8,151.2,266.5,148.3z"/>
	<path class="st0" d="M304.9,179.8c-2.2,0-4.3-0.4-6.2-1.2c-1.9-0.8-3.6-2-5-3.5s-2.5-3.4-3.3-5.7c-0.8-2.2-1.2-4.8-1.2-7.7
		s0.4-5.5,1.3-7.7s2.1-4.1,3.5-5.7c1.5-1.5,3.2-2.7,5.1-3.5s4-1.2,6.1-1.2c1.3,0,2.5,0.1,3.5,0.2c1.1,0.2,2,0.4,2.8,0.6
		c0.8,0.2,1.5,0.5,2,0.8c0.6,0.2,1,0.5,1.3,0.7l-1.1,2.9c-0.8-0.5-1.9-1-3.2-1.5c-1.3-0.5-2.9-0.7-4.8-0.7c-2.2,0-4.1,0.4-5.7,1.1
		c-1.6,0.7-3,1.8-4.1,3.1s-1.9,2.9-2.5,4.8c-0.5,1.8-0.8,3.9-0.8,6.1c0,2.3,0.3,4.4,0.8,6.2c0.6,1.9,1.4,3.4,2.4,4.7
		c1.1,1.3,2.4,2.3,3.9,3s3.3,1,5.3,1c2.2,0,4-0.2,5.5-0.6c1.5-0.4,2.6-0.8,3.4-1.3l0.9,2.9c-0.2,0.2-0.6,0.4-1.2,0.6
		c-0.6,0.2-1.3,0.4-2.1,0.7c-0.9,0.2-1.9,0.4-3,0.6C307.6,179.8,306.3,179.8,304.9,179.8z"/>
	<path class="st0" d="M349.1,179.1c-0.7-1.7-1.3-3.3-1.8-4.9c-0.6-1.6-1.1-3.1-1.6-4.6h-16.9c-0.6,1.5-1.1,3-1.7,4.6
		s-1.1,3.2-1.8,4.9h-3.5c1.3-3.6,2.6-7,3.7-10.1c1.2-3.1,2.3-6.1,3.4-8.8s2.2-5.5,3.4-8s2.3-5.1,3.5-7.7h3c1.2,2.6,2.4,5.1,3.5,7.7
		c1.1,2.6,2.2,5.2,3.3,8s2.3,5.7,3.4,8.8c1.2,3.1,2.4,6.5,3.8,10.1H349.1z M337.2,148.3c-1.3,2.9-2.5,5.8-3.7,8.8s-2.4,6.2-3.7,9.6
		h14.8c-1.3-3.4-2.5-6.6-3.7-9.6C339.7,154.1,338.5,151.2,337.2,148.3z"/>
	<path class="st0" d="M389.1,161.7c0,3-0.5,5.5-1.4,7.8c-0.9,2.2-2.2,4-3.9,5.5c-1.7,1.5-3.7,2.6-6,3.3s-4.9,1.1-7.7,1.1
		c-1.4,0-2.9-0.1-4.4-0.2c-1.5-0.2-2.9-0.4-4-0.7v-33.4c1.2-0.3,2.5-0.6,4-0.7c1.5-0.2,3-0.2,4.4-0.2c2.8,0,5.4,0.4,7.7,1.1
		c2.3,0.7,4.3,1.8,6,3.3s3,3.3,3.9,5.5C388.6,156.2,389.1,158.8,389.1,161.7z M365,176.1c0.2,0,0.7,0.1,1.5,0.2
		c0.8,0.1,2.1,0.1,3.9,0.1c2.5,0,4.7-0.3,6.5-1c1.9-0.7,3.4-1.7,4.7-2.9c1.3-1.3,2.2-2.8,2.9-4.6c0.6-1.8,0.9-3.9,0.9-6.1
		s-0.3-4.3-0.9-6.1s-1.6-3.3-2.9-4.6s-2.8-2.2-4.7-2.9c-1.9-0.7-4-1-6.5-1c-1.8,0-3.1,0-3.9,0.2c-0.8,0.1-1.3,0.2-1.5,0.2V176.1z"/>
	<path class="st0" d="M400.4,179.1v-34.7h20v3h-16.6v12h14.8v2.9h-14.8v13.8h17.9v3H400.4z"/>
	<path class="st0" d="M447.5,174.1c-0.3-0.8-0.8-1.9-1.4-3.3c-0.6-1.4-1.3-2.9-2.1-4.5c-0.8-1.6-1.6-3.3-2.4-5s-1.6-3.3-2.3-4.8
		s-1.4-2.8-2-4c-0.6-1.1-1-1.9-1.3-2.4c-0.4,4.2-0.8,8.7-1,13.6c-0.2,4.9-0.5,10-0.7,15.4H431c0.3-6.3,0.6-12.3,1-18.1
		s0.9-11.3,1.4-16.6h3c1,1.7,2.1,3.6,3.2,5.8s2.3,4.5,3.4,6.8c1.1,2.4,2.2,4.7,3.3,7s2,4.3,2.8,6.2c0.8-1.8,1.7-3.9,2.8-6.2
		c1.1-2.3,2.1-4.6,3.3-7c1.1-2.3,2.2-4.6,3.4-6.8c1.1-2.2,2.2-4.1,3.2-5.8h2.9c0.6,5.3,1,10.8,1.4,16.6s0.7,11.8,1,18.1h-3.5
		c-0.2-5.4-0.4-10.5-0.7-15.4c-0.2-4.9-0.6-9.4-1-13.6c-0.3,0.5-0.7,1.3-1.2,2.4c-0.6,1.1-1.2,2.5-2,4s-1.5,3.1-2.3,4.8
		s-1.6,3.4-2.3,5c-0.8,1.6-1.5,3.1-2.1,4.5s-1.1,2.5-1.4,3.3H447.5z"/>
	<path class="st0" d="M487,179.1v-14.2c-2.4-3.6-4.6-7.1-6.6-10.5s-3.8-6.7-5.5-9.9h4c1.4,2.9,2.9,5.9,4.6,8.9s3.5,5.9,5.3,8.6
		c1.8-2.7,3.5-5.6,5.2-8.6s3.3-6,4.7-8.9h3.7c-1.8,3.2-3.6,6.5-5.6,9.9s-4.1,6.9-6.4,10.4v14.3H487z"/>
</g>
</svg>
