<svg xmlns="http://www.w3.org/2000/svg" width="223.995" height="72.79" viewBox="0 0 223.995 72.79" aria-hidden="true">
    <path d="M202.029,494.221,111.9,459.247a9.017,9.017,0,0,0-5.651,0l-2.175.842,87.1,33.8a1.5,1.5,0,0,1,0,2.863l-86.725,33.495,2.259.879a8.977,8.977,0,0,0,5.65,0L202.029,496.5c.679-.263,1.075-.675,1.075-1.134S202.712,494.492,202.029,494.221Z"
          transform="translate(1.602 -458.793)" fill="#ffed00" />
    <path d="M206.23,494.068l-89.562-34.745a9.065,9.065,0,0,0-5.655,0l-2.175.842,86.537,33.578a1.5,1.5,0,0,1,0,2.863L109.73,529.688l2.259.879a9,9,0,0,0,5.646.008l88.6-34.224c.683-.267,1.075-.68,1.075-1.134S206.918,494.339,206.23,494.068Z"
          transform="translate(16.69 -458.552)" fill="#ffed00" />
    <g transform="translate(0 0.441)">
        <path d="M263.035,493.924,174.3,459.35a8.107,8.107,0,0,0-2.913-.45h0a8.214,8.214,0,0,0-2.938.446l-88.7,34.315c-1.367.529-1.375,1.6-.008,2.129l88.737,34.578a8.172,8.172,0,0,0,2.913.446h0a8.145,8.145,0,0,0,2.938-.442l88.7-34.32C264.389,495.524,264.4,494.453,263.035,493.924Z" transform="translate(-78.714 -458.899)" fill="#ffed00" />
        <g transform="translate(44.367 25.528)">
            <g>
                <g>
                    <path d="M112.4,467.846a11.767,11.767,0,0,0-15.264-.012,10.026,10.026,0,0,0-3.034,7.58,10.191,10.191,0,0,0,3.021,7.592,11.762,11.762,0,0,0,15.26.013,11.013,11.013,0,0,0,.017-15.172Zm-3.709,11.63a5.169,5.169,0,0,1-3.938,1.571,5.031,5.031,0,0,1-3.93-1.58,6.294,6.294,0,0,1,.008-8.088,5.689,5.689,0,0,1,7.863,0,5.68,5.68,0,0,1,1.475,4.046A5.758,5.758,0,0,1,108.695,479.476Z" transform="translate(-74.333 -465.012)" />
                    <path  d="M105.182,465.151l-5.1,0-.007,19.84h12.82l-.006-4.773-7.706,0Z" transform="translate(-55.441 -464.638)" />
                    <path d="M99.479,481.043a4.377,4.377,0,0,1-3.438-1.571,5.865,5.865,0,0,1-1.433-4.059,6.156,6.156,0,0,1,1.45-4.059,4.956,4.956,0,0,1,3.567-1.559,4.149,4.149,0,0,1,3.513,1.738l3.921-3.192s-2-3.317-7.026-3.317a10.805,10.805,0,0,0-7.638,2.8,10.335,10.335,0,0,0-3.034,7.584A10.181,10.181,0,0,0,92.378,483a10.825,10.825,0,0,0,7.634,2.821,8.527,8.527,0,0,0,7.48-3.842l-4.221-3.163A4.162,4.162,0,0,1,99.479,481.043Z" transform="translate(-89.361 -465.025)" />
                    <path d="M116.244,465.156l-4.053,0L103.6,484.984l5.592,0,4.9-12.595,2.407,6.065-2.649,0-1.716,4.453h6.144l.864,2.091,5.715,0Z" transform="translate(-44.268 -464.622)" />
                    <path d="M121.247,474.544a17.858,17.858,0,0,0-4.284-1.6c-1.4-.446-1.934-.838-1.934-1.646,0-.483.417-1.479,2.342-1.479a3.231,3.231,0,0,1,2.988,1.5l3.546-3.871a8.468,8.468,0,0,0-3.217-1.933,10.565,10.565,0,0,0-6.067-.071,6.35,6.35,0,0,0-4.85,6.192,4.9,4.9,0,0,0,2.525,4.488,25.138,25.138,0,0,0,4.346,1.671c.617.209,1.988.625,1.988,1.75,0,1.263-2.021,1.863-3.7,1.308a4.44,4.44,0,0,1-2.317-1.85l-3.659,4.013a9.288,9.288,0,0,0,3.434,2.221,11.638,11.638,0,0,0,3.571.6,8.449,8.449,0,0,0,5.4-1.617,6.091,6.091,0,0,0,2.354-5.063A4.787,4.787,0,0,0,121.247,474.544Z" transform="translate(-27.296 -464.976)" />
                </g>
            </g>
        </g>
    </g>
</svg>