<?xml version="1.0" encoding="UTF-8"?><svg id="Layer_2" xmlns="http://www.w3.org/2000/svg" xmlns:xlink="http://www.w3.org/1999/xlink" viewBox="0 0 906.2434 216.5409"><defs><linearGradient id="linear-gradient" x1="-3.1566" y1="183.9952" x2="127.6795" y2="48.3906" gradientUnits="userSpaceOnUse"><stop offset="0" stop-color="#cb3300"/><stop offset="1" stop-color="#e50"/></linearGradient><linearGradient id="linear-gradient-2" x1="147.642" y1="49.7211" x2="91.1577" y2="147.0421" gradientUnits="userSpaceOnUse"><stop offset="0" stop-color="#e50"/><stop offset=".5888" stop-color="#f60"/></linearGradient></defs><g id="Components"><g id="f437ba5d-f6fa-4bf5-8e6f-fbe21ed2d863_1"><polygon points="266.925 35.9599 241.043 35.9599 241.043 155.4246 245.6676 155.4246 266.925 155.4246 313.5915 155.4246 313.5915 131.2111 266.925 131.2111 266.925 35.9599"/><rect x="326.861" y="74.7041" width="24.6076" height="80.7204"/><path d="M339.0006,33.8578c-3.9414,0-7.2654,1.3401-9.985,4.0465-2.7196,2.6802-4.0728,6.0172-4.0728,9.9981s1.3532,7.3442,4.0728,10.0901c2.7196,2.7459,6.0435,4.1122,9.985,4.1122,3.8363,0,7.1077-1.3664,9.8273-4.1122,2.7196-2.7459,4.0728-6.1092,4.0728-10.0901s-1.3532-7.3179-4.0728-9.9981c-2.7196-2.7064-5.991-4.0465-9.8273-4.0465Z"/><path d="M406.2808,33.7001c-6.7136,0-12.5206,1.2087-17.4211,3.6261-4.9005,2.4174-8.6843,6.1749-11.3513,11.2199-2.667,5.0713-3.994,11.6272-3.994,19.7071v6.4508h-11.0229v20.6662h11.0229v60.0542h24.6076v-60.0542h19.1816v-20.6662h-19.1816v-6.4508c0-3.4422.8014-6.3588,2.4043-8.7237,1.5897-2.3649,4.9005-3.5473,9.9061-3.5473h6.8712v-21.31c-1.9182-.3285-3.81-.5781-5.6757-.7357-1.8656-.1577-3.6524-.2365-5.3472-.2365Z"/><path d="M475.1638,134.916c-3.0875,1.6291-6.9763,2.4174-11.6666,2.4174-6.3983,0-11.1017-1.7868-14.1366-5.3998-2.0561-2.4371-3.1531-6.0895-3.8166-10.3003l57.7485-.2759v-6.2931c0-8.8157-1.6554-16.4358-4.9531-22.8471-3.3108-6.3983-7.988-11.3513-14.0709-14.846-6.0698-3.4947-13.3089-5.2552-21.7304-5.2552-7.988,0-15.0825,1.8393-21.2574,5.4917-6.1749,3.6655-10.9966,8.6974-14.465,15.0957-3.4553,6.3983-5.1895,13.8081-5.1895,22.1902,0,8.3033,1.7868,15.6343,5.3603,22.0457,3.5604,6.4114,8.4609,11.4301,14.7015,15.0957,6.2275,3.6655,13.3352,5.4786,21.3363,5.4786,10.9703,0,20.1276-2.6539,27.4849-7.988,7.3442-5.3209,11.7192-12.4549,13.0987-21.3888h-22.5318c-.854,2.9167-2.8247,5.1764-5.9121,6.7793ZM452.5531,94.7134c2.6013-1.6028,5.991-2.4174,10.1426-2.4174,5.0056,0,8.947,1.2744,11.8243,3.7969,2.8772,2.5357,4.3224,5.9516,4.3224,10.2608h-33.1474c.2956-1.4452.5715-2.9167,1.0248-4.1254,1.2744-3.3896,3.2188-5.8859,5.8333-7.515Z"/><path d="M569.9288,86.0029l-17.7364-3.7181c-4.1516-.854-7.1997-2.2598-9.1178-4.1911-1.9182-1.9313-2.8772-4.7429-2.8772-8.3952,0-3.9808,1.5766-7.0946,4.7166-9.3543,3.14-2.2598,7.3311-3.3896,12.5469-3.3896,4.9005,0,8.7894,1.2087,11.6666,3.6261,2.8772,2.4174,4.3224,5.7282,4.3224,9.9324h25.7244c0-7.5413-1.6817-14.0578-5.0319-19.5495-3.3634-5.4786-8.1325-9.7222-14.3074-12.7439-6.1749-3.0218-13.5322-4.5195-22.0457-4.5195-8.4215,0-15.9102,1.5897-22.4661,4.756-6.5428,3.1794-11.6929,7.5413-15.411,13.0855-3.7312,5.5443-5.5968,11.9162-5.5968,19.1291,0,9.801,2.6933,17.7101,8.0668,23.7274,5.3866,6.0304,13.3483,10.1163,23.8982,12.271l18.0517,3.7049c3.9414.762,6.7398,2.0495,8.3952,3.8889,1.6423,1.8262,2.47,4.4144,2.47,7.7515,0,3.7575-1.6948,6.753-5.1107,8.9602-3.4028,2.2072-8.0405,3.3108-13.9001,3.3108-5.7545,0-10.182-1.1956-13.2695-3.5604-3.0875-2.3649-4.6246-5.7019-4.6246-10.0112h-25.7375c0,7.423,1.7868,13.9132,5.3603,19.4575,3.5604,5.5443,8.6186,9.8273,15.1745,12.8228,6.5559,3.0218,14.2023,4.5195,22.9391,4.5195,9.0521,0,16.9613-1.5503,23.7274-4.6772,6.7661-3.1137,12.0082-7.5544,15.7394-13.322,3.7312-5.7545,5.5968-12.4549,5.5968-20.0881,0-9.4726-2.5619-16.8824-7.6726-22.2034-5.1107-5.3209-12.941-9.0653-23.4909-11.2199Z"/><path d="M643.6861,96.8944c2.6013-1.6554,5.61-2.4962,9.0259-2.4962,4.2567,0,7.6464.9722,10.1426,2.9167,2.5094,1.9313,4.1911,4.9399,5.045,9.039h24.7653c-.7489-10.563-4.7954-18.8926-12.1396-25.0281-7.3573-6.1355-16.9481-9.2098-28.7724-9.2098-7.988,0-15.0431,1.8393-21.1786,5.4917-6.1224,3.6655-10.944,8.6974-14.465,15.0957-3.5079,6.3983-5.2684,13.7556-5.2684,22.0326,0,8.6186,1.708,16.1336,5.1107,22.5187,3.4159,6.4114,8.2376,11.3907,14.465,14.938,6.2406,3.5604,13.5585,5.3209,21.98,5.3209,7.4493,0,14.1103-1.4452,19.9699-4.3487,5.8596-2.9035,10.5762-6.9238,14.1497-12.0214,3.5604-5.1239,5.61-11.0623,6.1486-17.8415h-24.7653c-.7489,3.9808-2.4305,6.9632-5.045,8.9602-2.6013,1.997-6.0961,2.9823-10.4579,2.9823-3.521,0-6.5296-.8014-9.039-2.4305-2.4962-1.6028-4.4144-3.9414-5.7413-7.0157-1.3401-3.0743-1.997-6.753-1.997-11.0623,0-4.1911.6832-7.804,2.0758-10.8126,1.3795-3.0086,3.3765-5.3472,5.991-7.0289Z"/><path d="M762.0997,76.3201c-5.3866-2.7984-11.9557-4.2042-19.7334-4.2042-7.5675,0-14.2023,1.235-19.9042,3.7181-5.7019,2.4831-10.0901,5.9778-13.1775,10.4973-3.1006,4.5195-4.6377,9.8536-4.6377,15.9759h20.456c0-3.6524,1.3532-6.4639,4.0728-8.3821,2.7196-1.9444,6.6873-2.9167,11.9031-2.9167,2.9823,0,5.4654.4598,7.4362,1.3664,1.9707.9197,3.4947,2.2598,4.5589,4.0465,1.0642,1.7736,1.5897,4.0071,1.5897,6.7004v1.2875l-22.3742,1.7736c-9.5777.7489-16.9087,3.3371-21.9669,7.7515-5.0582,4.4144-7.5938,10.3397-7.5938,17.7496,0,7.8566,2.4831,14.1366,7.4362,18.8137,4.9531,4.6772,11.6403,7.0157,20.0487,7.0157,5.9647,0,11.325-1.2087,16.0679-3.6261,4.7429-2.4174,7.7515-5.4654,9.0259-9.1178l1.6028,10.655h21.7304v-47.1395c0-7.7515-1.4189-14.3074-4.2305-19.694-2.8247-5.3866-6.9369-9.4726-12.3104-12.271ZM754.8343,125.2332c0,4.6377-1.4977,8.1062-4.4801,10.4185-2.9823,2.3123-6.8187,3.4685-11.509,3.4685-3.7312,0-6.5034-.7095-8.3033-2.1021-1.8131-1.3926-2.7196-3.5473-2.7196-6.4639,0-2.5751,1.0905-4.5458,3.2714-5.8859,2.1809-1.3401,5.9384-2.2335,11.2725-2.6539l12.468-1.1299v4.3487Z"/><rect x="790.9599" y="33.7001" width="24.6076" height="121.7244"/><path d="M883.7116,128.1368c-.854,2.9167-2.8247,5.1764-5.9121,6.7793-3.0875,1.6291-6.9763,2.4174-11.6666,2.4174-6.3983,0-11.1017-1.7868-14.1366-5.3998-2.0528-2.4371-3.1531-6.0895-3.8199-10.3003l57.7518-.2759v-6.2931c0-8.8157-1.6554-16.4358-4.9531-22.8471-3.3108-6.3983-7.988-11.3513-14.0709-14.846-6.0698-3.4947-13.3089-5.2552-21.7304-5.2552-7.988,0-15.0825,1.8393-21.2574,5.4917-6.1749,3.6655-10.9966,8.6974-14.465,15.0957-3.4553,6.3983-5.1895,13.8081-5.1895,22.1902,0,8.3033,1.7868,15.6343,5.3603,22.0457,3.5604,6.4114,8.4609,11.4301,14.7015,15.0957,6.2275,3.6655,13.3352,5.4786,21.3363,5.4786,10.9703,0,20.1276-2.6539,27.4849-7.988,7.3442-5.3209,11.7192-12.4549,13.0987-21.3888h-22.5318ZM855.1888,94.7134c2.6013-1.6028,5.991-2.4174,10.1426-2.4174,5.0056,0,8.947,1.2744,11.8243,3.7969,2.8772,2.5357,4.3224,5.9516,4.3224,10.2608h-33.1441c.2923-1.4452.5682-2.9167,1.0215-4.1254,1.2744-3.3896,3.2188-5.8859,5.8333-7.515Z"/><path d="M140.2186,20.3886C136.8421,8.2753,127.7636.8654,115.3218.0639l-1.5503,24.1742c1.5207,0,2.5882.8901,3.1269,2.6539,7.7154,25.2679-39.0859,117.1001-111.7004,167.59-5.4917,3.8232-6.845,11.3645-3.0349,16.8562,2.3517,3.3896,6.1224,5.2027,9.9587,5.2027,2.378,0,4.7954-.7095,6.8975-2.1678C94.6424,161.7943,151.4123,60.5125,140.2186,20.3886Z" style="fill:url(#linear-gradient);"/><path d="M166.6,134.5589c-5.899-3.1137-13.2301-.8277-16.3438,5.0976-11.8506,22.5844-32.9241,40.9515-50.0563,32.3855-14.6359-7.2785-21.5728-64.2192-8.5923-112.4624,6.5559-24.4106,16.1468-35.3416,22.164-35.3416L115.3218.0639c-12.0739-.7883-34.1591,5.0845-47.1002,53.2226-12.5863,46.8243-12.2973,123.7743,21.1787,140.4334,6.3983,3.1794,13.0987,4.7166,19.8911,4.7166,22.8472,0,46.5878-17.3686,62.4061-47.5337,3.1137-5.9253.8277-13.2432-5.0976-16.3438Z" style="fill:url(#linear-gradient-2);"/><path d="M182.1082,117.0827c-4.9547,0-9.1332-1.7176-12.552-5.1695-3.4188-3.4518-5.1199-7.6799-5.1199-12.6842s1.7011-9.1993,5.1199-12.5851c3.4188-3.3857,7.5973-5.0704,12.552-5.0704,4.8226,0,8.9351,1.6846,12.3538,5.0704,3.4188,3.3857,5.1199,7.5808,5.1199,12.5851s-1.7011,9.2323-5.1199,12.6842c-3.4188,3.4518-7.5312,5.1695-12.3538,5.1695Z" style="fill:#f60;"/></g></g></svg>