<svg version="1.2" xmlns="http://www.w3.org/2000/svg" viewBox="0 0 1550 1510" width="1550" height="1510"><defs><clipPath clipPathUnits="userSpaceOnUse" id="cp1"><path d="m-2038-481h5621v3977h-5621z"/></clipPath></defs><style>.a{fill:#2c2e35}.b{fill:#bb9861}</style><g clip-path="url(#cp1)"><path fill-rule="evenodd" class="a" d="m110.4 1106.7h-71.4v73.5h-38.2v-189.7h109.6c62.2 0 75.3 31.5 75.3 58 0 26.5-13.1 58.2-75.3 58.2zm-71.4-35.8h66c40.1 0 43.5-10.5 43.5-22.2 0-11.8-3.4-22.4-43.5-22.4h-66zm284.2 113.5c-62.7 0-97.3-29.7-97.3-83.7v-110.2h38.2v110.2c0 32.9 19.3 48.9 59.1 48.9 39.8 0 59.2-16 59.2-48.9v-110.2h38.1v110.2c0 54-34.5 83.7-97.3 83.7zm250.3-4.2h-96.9v-189.7h108.5c18.6 0 75.5 0 75.5 53.7 0 18.6-8.3 29.3-17.1 35.9 11 7.4 23 20.3 23 43.1 0 57-62.8 57-93 57zm-58.7-154.8v38.6h64.6c43 0 43-14.2 43-19.5 0-16.4-12.5-19.1-50.1-19.1zm113 97.1c0-7.1 0-23.6-38.5-23.6h-74.5v45.5h72.1c34 0 40.9-8.8 40.9-21.9zm262.9 57.7h-168.8v-189.7h38.1v153.9h130.7zm75.5-189.6v189.6h-38.1v-189.6zm152.5 193.9c-78.9 0-107-51-107-98.8 0-61.3 40.9-99.4 106.7-99.4 46.4 0 83 20.4 98 54.5l3.4 7.7-33.8 15.6-3.5-8.2c-9.9-23.1-31.4-34.8-63.8-34.8-44.8 0-68.4 23.3-68.4 67.2 0 37.8 26.2 60.4 70.3 60.4 30.2 0 51.3-11.8 64.4-36l3.9-7.3 33.9 16.5-4 7.9c-19 36.8-51.8 54.7-100.1 54.7zm186.3-193.9v189.6h-38.1v-189.6zm244.1 132.3c0 45.5-51.3 61.6-95.2 61.6-60 0-83-25.6-98.2-42.5l-5.9-6.6 6.5-6 23.2-19.7 5.5 7.4c9.4 12.5 23.7 31.6 71.3 31.6 5.5 0 54.2-0.7 54.2-25.8 0-15.3-23.5-18.7-59.3-22.1-40.5-4-91-8.8-91-54.2 0-22.5 11.6-60.3 89.5-60.3 59.8 0 85.8 29.8 92.3 38.9l4.7 6.6-27.9 22.7-6.7-7.6c-7.2-8.3-22.3-25.8-62.9-25.8-18.8 0-50.4 2.9-50.4 22.2 0 14.6 21.3 17.6 56.3 20.8 41.9 3.8 94 8.5 94 58.8zm-1377.3 280.8h106.2v102.4h-35.8v-14c-12.7 9.1-31.4 16.9-60.6 16.9-78.9 0-107-51-107-98.8 0-61.3 40.9-99.4 106.8-99.4 43.8 0 78.7 19.6 93.2 52.5l3.3 7.4-32.9 17.4-3.7-8.5c-13.5-30.7-46.9-34-60.6-34-44.1 0-67.5 23.3-67.5 67.2 0 37.8 26 60.4 69.4 60.4 23 0 50.2-9 57.5-33.7h-68.3z"/><path fill-rule="evenodd" class="a" d="m479.4 1425.8l58.4 78.9h-47.4l-55.5-76.4h-54.7v76.4h-38.2v-189.7h108.2c63.2 0 76.5 30.9 76.5 56.8 0 32.4-23 48.6-47.3 54zm-99.2-33.3h65.3c37 0 44-7.3 44-20.9 0-13.2-7.2-20.8-44-20.8h-65.3zm404.3 18.4c0 67.3-56.8 98-109.6 98-52.8 0-109.6-30.7-109.6-98 0-59.9 44-100.2 109.6-100.2 65.5 0 109.6 40.3 109.6 100.2zm-38.6-3.8c0-36.2-29.2-61.5-71-61.5-41.8 0-71 25.3-71 61.5 0 61.3 54.3 66 71 66 16.6 0 71-4.7 71-66zm236.9-92.1h38.2v110.1c0 54-34.6 83.8-97.3 83.8-62.7 0-97.3-29.8-97.3-83.8v-110.1h38.2v110.1c0 33 19.3 49 59.1 49 39.8 0 59.1-16 59.1-49zm274 58c0 26.5-13.1 58.2-75.3 58.2h-71.4v73.4h-38.2v-189.6h109.6c62.2 0 75.3 31.5 75.3 58zm-146.7 22.4h66c40.1 0 43.5-10.5 43.5-22.2 0-11.8-3.4-22.4-43.5-22.4h-66zm222.7 73.5h135.6v35.8h-173.7v-189.7h170.8v35.8h-132.7v37.7h110.9v35.8h-110.9z"/><path fill-rule="evenodd" class="b" d="m1547.4 894.2v31.1h-1546.8v-31.1h257.6l54.7-90.6c-117 97.1-145.2-24.6-200.9-15.1 14.4-64.9 68.6-27.8 92.6-27.8 24.1 0 59-42.8 71.1-52.2l-125.2-67.1h312.2c23.6 0 36.7-8.1 25.3-21.6-14.8-17.7-72.4 3.4-137.7 8.2-39.8 2.8-63.8-12.5-83.4-30.6l-55.1 16.7 46.6-24.9c-32.1-31.8-56.4-64.5-132-18.6-23.5-60.9 33.1-113 83.6-114.2 72.3-1.9 86.2 82.8 142 53.3l-95.6-111.3 155.2 76.5-19.9-59.1-66.7-17.4 64.9 5.2c-17.9-60.9-86.1-50-114.1-79.7-60.5-64.5 5.1-146.9 54.6-123.9-34.2 73.2 28.9 104.4 81.2 94.1l-25.3-85.3 200.4 203.5c-45.9 34.8-97 4.1-122.4-71.3-24.1-72.2-106-8.8-142.9-25.5-1.2 42.9 72.1 0 83 87 7.1 56.8 48.9 108.6 110.3 94.5-23.8 35.8-81.1-8.6-117.4 43.1 63.1-7 72 63.5 123.8 75.6-38.7-22.1-36.7-75.8-75.5-84.6 23.7-5.2 19.4 18 45 9.6 26.5-8.9 39.4-26.7 37.6-52.9 27.4 11 30 37.1 17.3 54.1-12.9 16.9-38.4 26.4-39.1 41 0 0 0.7-2.7 18.4-11.3-13.2 17.7-4.5 42 9.9 57.8-0.8-10.5-0.6-26.9 5.4-30.1 11.2 25.7 39.5 67.9 108.8 53.2-13.9-4.7-24.7-10.4-33-16.7l4.3 0.8c37.2 10.2 102.2-42.6 87-127.4 0 0 3.3-3.3 9.8 3.1 6.6 6.3-1.3 25.3-1.3 25.3 0 0 6.2 61 9.3 70.8 1.9 5.7 25.1 6.3 28.8 6.4 4.9 0.3 1.9 5.4-0.4 5.4h-36.4c-5.4 0.2-21.5 19.4-6.3 22.9 0 0 18.7 4.8 38 4.8 19.1 0 37.9-4.8 37.9-4.8 0 0-3.2 15.3-38.4 15.3-35.1 0-49.1-6.1-49.1-6.1-7.9 22 38.4 44.3 43.1 45.8 4.7 1.4 12.3 0.9 13.9-0.2 1.6-1.1 33.7-26.7 33.7-26.7l-9.8 15.6c43.3-10 36.9-31.8 22.2-36.7-0.9-9.9 24.6-8.1 23.8 10.7-1.1 24-62.3 37.4-69.9 53.6-4.8 10.3 7.5 43.7 18 47 10.1 2.9 49.8 2.7 62.1-3.9 3.6-2 36.1-63.2 36.1-78.4 0-15.2-49.5-92.9-49.5-92.9 6.4-19 35.1-14.2 61.4-30.9-42.7 44.4-43 66.5 17.4 54.9-30.5 5.9-34.7 45.3-22.6 49.7 111.9 40.2 58.6 197.1 150.1 228.4-72.7 10.9-80.9-86.5-87.5-128.8-2.8 45-5.9 83.2 28.4 119.5 7.4 7.7 15.8 12.4 24.7 15.2h68.5c8.1-0.8 16.3-1.4 24.3-1.4 5.3 0.1 10 0.6 14.3 1.4h49.7c-3.6-4.3-7.5-8.7-12.1-13.3-26.4-25.7-83.6 0.3-126.8-48.8-43.3-49.1-56.8-149.2-117.3-188.1 69.4 17.6 95.2 132 130.4 170.1 35.2 38.1 112 26.3 137.5 53.1 8.9 7.8 14.2 17.1 17.8 27h10.2c-4-19.4-9-37.2-21-47.7-29.6-26-82.8-11.9-127.6-46.4-44.2-34-53.1-122.8-135.2-178.2 111.5-31.6 138.9 173.9 245.4 173.9 53.3 0 91.8-78.4 139.6-78.4 34.1 0 60.1 18.6 65.9 49.1 6 31.9-6 57.1-6 57.1 0 0 16.3-17.4 16.3-48.3 0-51.2-40.6-71.7-79.6-71.7-38.8 0-52.2 26.2-111.8 26.2-76.8-1.8-97.3-140.4-184.5-148.5 45.6-38.1 89.2 30.9 130.3 30.2 29.8-0.5 43.4-23.5 59.6-73.1 16.2-49.6 54.2-20.9 79.4 2.6 25.4 23.4 62.5 25 84.2 6.1-5.7 17.9-25.8 17.7-17.9 29.5 3.4 5.4 8.6 2.8 14.2-2.3 28.6-26.4 35.3-95.9 4.7-112.5 23.3 110.5-73.9 77.4-71 62.7 17.9 6 43.2 5.2 36-5.3-69.4-0.8-71.8-46.9-117.9-42.5l13.5 8.6c-81.3 0-29.8 111.1-87.5 111.1-31.3 0-51.9-35.2-91.2-38.2 45.4-39.5 90.9 64 103.7-15.4-30.8 29.4-54.7-15.4-101.5 0 31.4-41.7 55-6.7 80.9-24.1 25.8-17.6 55.7-71.9 117.1-44.6l32.7-28.8-21.9 35.8c63.9 42 100.7 38 94.4-41 82.4 48.1 37.1 159-25.3 158.3-37-0.4-49.4-19.2-70.7-27.3-15-5.7-26.9 5.8-41.1 20.6l59.3 23.2-71.7-10.4c-21.8 21.4-54.2 40.5-99.8 20l8.9 16.9h251.9l-172.4 77c46 9.6 102.8-47.2 167.8-7.8 62.8 37.7 34.4 123.7 8.2 123.5-23.4-0.3 21.5-77.3-42.6-75.7-23.5 0.6-42.3 20-65.3 38l21.1 52.4-34.5-42.3c-18.6 13.4-38.5 23.5-61.2 20.6l113.7 67.1zm-1213.3-134c-55.4-26-69.7 62.3-131.9 50.3-0.8 39.1 59 20.7 82.4 2.6 23.1-18 35.5-50.3 49.5-52.9zm-146 30.5c25.3 15.5 68.7-1.9 51-29.8-53.1 36.3-78-28.9-109.9 18.4 13.3-4.9 33.6-4.3 58.9 11.4zm107.1-85.4c61.6-29.4 100.8 72.2 154.3 14.6-61.9 19.5-70.1-38.5-124.9-32 31.2-30.2 68.9 15 109.9 15 40.9 0 73.2-10.5 77.4-40.9-10.6 10.6-35.6 24.6-77.8 24.6-42 0-107.7-55.8-138.9 18.7zm124.6-33.8c36.6 13 111.1-20.8 99.3-34-12.1-13.3-38 34.9-99.3 34zm45.9 175.5c-7.7 17.9-15 34-24.1 47.2h13.2c8.7-17.9 11.4-36.2 10.9-47.2zm31 47.2h28.5c29.5-79.5 7.9-167.2 48.6-216.8-58.1 44.2-41.3 166-60.9 198.2-19.5-149 42.8-203.6 56.4-215.7-100 74-64.5 170.3-72.6 234.3zm84.8-194.4c-28.8 31.1-10.2 132.2-43.6 194.4h22.3c32.9-71.3 1.3-158.3 21.3-194.4zm18 165.2l-18.2 29.2h34.1c-1.8-8.1-6.7-17.6-15.9-29.2zm39.3 29.2h19.1c-7.1-48.4-36.8-54.3-40.7-100.9 0 0 2 13.2 48 74.6 6.5 8.7 8.5 17.5 7.6 26.3h12.5c0.1-1.4 0.2-2.8 0.2-4.3 0-48.4-70.6-63.8-73.3-161l-1 7.9c-16.2 107 20.6 121.2 27.6 157.4zm-4.7-202.6c1.3 9.3 42.1 24.9 42.1 24.9 0 0-10.1 7.8-31.1 0.3 10.9 18.6 37.7 18.4 37.7 18.4 0 0-2 11-31.4 3.1 7.1 20.9 56 26 66 23.1 10.7-3.3 22.9-36.7 18.1-47 0 0-42.9-20.4-83.7-22.8zm36.5-30.8c1 24 35.9 30.5 50.1 28.4-43.7-9.9-41.2-34.2-26.1-39.1 0.5-9.9-25-8.1-24 10.7zm22.8 116.1c-5 0-6 1.7-6.1 2.5-0.3 1.9 2.3 11.3 6 12.3 0.3 0.1 34.8 8.2 55 7.2 20.2 1 54.6-7.1 54.9-7.2 3.8-1 6.2-10.4 6.1-12.3-0.2-0.8-1.2-2.5-6.2-2.5-1 0-36.3 1-54.8 1-18.6 0-54.9-1-54.9-1zm71.8 117.3h12.9c-0.3-16.3-6.4-34.2-27.6-58.8 12.4 24.7 15.4 43.1 14.7 58.8zm-28.6 0c2.8-24.5-12.6-44.7-55-73.9 28.3 30.2 42.1 40.4 34.5 73.9zm53.8-68.3c16.2 28.9 14.6 49.2 8.9 68.3h13c3.6-24.3 2-48-21.9-68.3zm27.5-13.2c15.2 31.3 11.9 57.2 5.6 81.5h14.6c3.8-30.5 4-61.5-20.2-81.5zm29.5 37.3l15.3 44.2h13.3c-7.8-21.5-16.6-38.1-28.6-44.2zm58.5 44.2h14.9c-4.9-14.3-10.6-27.6-18.2-39 11 5 20.8 19.8 30 39h31.4c-2-2.7-4-5.2-6-7.1-17.4-16.1-110.3-66.8-72.6-147.9-37 79.5-1.1 112.2 20.5 155zm-496.3-301.6c-0.9-32.5-114.7-15.7-111.5 7 3.3 25 112.3 21.3 111.5-7zm-33.8-53.8c-58.2 9.9-82.1-18.5-97.7-37.2-9.3-11.2-18-22.4-36.2-25.4-1.1-0.1-0.8 1.4-0.6 3.2 0.2 2.6 0.6 6.4-1 7.2-1.2 0.5-3.8 0.1-10.2-5.7-6.4-5.8-16.4-8.6-27.9-7.8-10.2 0.6-20.4 4-27.2 8.9-6.8 4.9-9.3 10.5-7 15.7 3.5 8 14.7 7.5 27.7 6.9 10.4-0.5 22.2-0.9 32.9 2.6 8.2 2.8 14.8 11.5 22.4 21.7 26.6 46.3 110.1 61.7 124.8 9.9zm-243 15.4c0 0 45.1-33.2 95.9-5.3 13.4-49.4-80.7-45.2-95.9 5.3zm237.9-249.9c-65.8-15.5-69.1-67.8-52.6-96.4-55-4.4-57.8 121 52.6 96.4zm863.9 479.9c26.2-34 68-65 100.6-32.4 4.5 4.5 6.5 2.7 5.2 0.4-26-46.9-89.1-23.9-109.2 29.7-1.5 4.1-0.3 7.2 3.4 2.3zm-102.5-162c27.2 3.1 116.2-83.5 87.4-95.8-28.7-12.5-30.6 78.9-87.4 95.8zm-856 272h80l89.9-25.1c7.7-18.1 12.4-42.4 12.5-75.9zm521.9-432.1c-7 11 10.9 20.1 29.6 10.5 16.6-8.4 27.6-19 53.2-19 16.7 0 39.4 28.6 52.2 7.6 8.9 12.5-3 26.6-22.6 26.6-19.8 0-28.6-16.1-53.3-16.1-24.7 0-29.5 15.1-62 15.1-32.6 0-39.4-58.8 3.9-63.5-24.6 20.8-15.3 38.6-1 38.8zm267.3-302c-13.9 59.3-57.1 40.3-95.3 91.6-38.1 51.3 16.2 140.4-88.3 139.4 88-22.1 32.5-86.1 74.4-148.3 23.9-35.8 87.3-34.5 109.2-82.7zm-242.6 135.3c0 0-10.7 42.1 13.2 65.6-50.9-18.3-13.2-65.6-13.2-65.6zm241-102.4c-13.2 43.5-38.8 36.5-66.9 77.4-32 35.5 10.6 138.2-78.1 136.1 70.4-21 31.7-93.2 65.3-143.1 19.1-28.5 61-35.7 79.7-70.4zm-14.1 236.1c-10.9 7.2-40 39-57.8 47.5 0-20.7 43.5-89.9 116.8-59.9-8.2 7.3-39.1-0.7-59 12.4zm-53.3 91.7c-33-10-54.8 16.2-60 4.4-3-15.1 44.1-15.2 60-4.4zm32.8-19.8c-1.1-102.3 133.7-49.1 149.2-121 11.7 74.9-120.6 70.4-149.2 121zm-36.2 63.7c-51.8-22.2-78.8 9.7-81.4-5.7-3.8-22.6 63.6-20.1 81.4 5.7zm-151.4-380.3c34.6 70.8-87.8 90.5-35.6 176.3-77.6-63.7 40-120.9 35.6-176.3zm-65.9 539.9c2.9-1.8 5.2-10 6.5-12.3 13.2-8.8 30-13.7 37-18.7-1 14.3-30 33.8-43.5 31z"/><path fill-rule="evenodd" class="b" d="m677.3 568c-20.6-11.4-72-13.9-94.2-45.9 23.6-10.9 47.9-31.4 68.2-27.3 46.3 9.2 30.7 66.1 26 73.2zm-34-63.9c-28-5.9-36.8 34.6-15.7 42.6 1.2-14.6 14.1-39.4 15.7-42.6zm17.6 10c-1.5 3.7-8.1 27.6-17.3 37.5 17.3 6.7 37.6-21.9 17.3-37.5zm-21.7-40.7c-22.8 0-71.1 49.1-82.5 1.1 0 0 7.4 2.4 16.4 1.6 8.2-28.2 53.7-53.8 81.6-46.1-32.7 2.5-57.7 25.3-53.9 39 4.9 17.6 33.3-9.7 57.7-9.4 28.3 0 44.2 28.8 66.5 2.5-1.2 57.7-65.3 11.3-85.8 11.3zm112.2-253.3c37.9-53-0.3-81.7-0.3-138.3 0-56.5 54.2-83 84.8-81.6 19.8 0.9 47 3.4 47 21.6 0 22.7-54.1 29.7-54.1 78.4 0 48.5 17 51.1 38.7 78.1l67.8-76.5-88.5 249.7c-38.9-65.3 23.4-97.5 24.4-132.2 1.3-53.1-59.7-66.3-58.7-120.9 0.9-58.3 62-60 61.3-75.6-0.8-21.7-84-7-84.8 49.5-0.7 47 30.8 63.6 30.8 114.8 0 61.4-91.5 90.7-45.1 167.6-34.8-14.3-25.3-53.8-25.3-53.8-14.3 15.9-11.8 91.3 40.3 67.5 5.2 36.4-69 28-69-62.4 0-46.1 22.2-72 22.2-72l-24.3-63.4zm-14.8 85.6c6.7-50.5 86.3-70.8 62.1-147.5 9.4 57.4-67 86.4-62.1 147.5zm-140.7 298l-2.7-4.2c-5.7-8.9-2.9-28.5-2.9-28.5-12.7-0.5-32.8 24-32.8 24 0 0-8.8-29.2 22.1-41.6-2.4-4.4-0.5-9.6-0.5-9.6 25 25.6 69.6 24.3 82.2 32.7 0 0-76.2-13.3-65.4 27.2z"/><path fill-rule="evenodd" class="b" d="m489.1 232.2c2.8-39.2 27.7-73.8 27.3-113.7-0.4-58.7-67.5-3.2-77.7-28-26.9-65.3 171.5-98.5 169.2 17.5-1.2 61.1-18.1 128.6 29.5 135.6l36-147.9 38 212.3c-34.6-43.8-99.1-26.9-114.5-96.8-11.2-50.7 48.4-177-91.3-167.6 161.6 49.3-90 187 59.5 274.8 40 23.7 54.1 65.5 36.1 83.5-2.4-59.5-61.4-67-83-92.2-19.3-22.6-27.4-42.9-29.1-62.1l-55.7-26.6zm29-144.6c-12.3-41.3-79.4-22.9-65.8-6.4 6.3 7.7 32.6-15.2 65.8 6.4zm185.5 288.9c29.7-106-198.2-49.3-132.3-173.9-24.9 123.2 180.3 59.3 132.3 173.9zm234.3 226.2c118.4-40 154.5 156.2 224 154.9 42.3-1 58.5-28.4 89.3-35.5-21.4 13.7-51.4 51.1-89.3 51.9-104.9 2.4-102-161.7-224-171.3zm-267.8-256c0-4.9-2-9.4-5.3-12.5-22.1-21.8-86.4-17.1-115.8-47.8-67.8-67.6 62.6-124.9 17.9-221.3 81.4 67-95.3 186.8 22.7 226.9 49.6 16.9 66.6 23.1 78.6 32.4 8 6.1 13.1 15.9 13.1 26.8 0 18.7-15.1 33.9-33.9 33.9-10.1 0-19.2-4.4-25.4-11.5-13-14.1-8.9-39.6-18.1-46.7 15.9-2.9 24.2 24.2 39.9 34.1 2.7 1.7 5.8 2.8 9.2 2.8 9.5 0 17.1-7.7 17.1-17.1zm-186.1 49.3c11.9 28.6 46 38.7 67.3 39.3-44.5 56.8-78.3-13.2-67.3-39.3zm301.1 346.2c5.9-3.7 11.8-10.8 14.5-15.2 19.3-7.4 28.8-11.1 30.2-14.4 3.9 12.5-21.6 36-44.7 29.6zm168.1-251.7c-13.1 7.2-20.2 22.4-25.1 14.4-2.5-4.3 8-16.7 25.1-14.4z"/><path fill-rule="evenodd" class="b" d="m819.5 561.7c-4.5-7.1-20.2-63.9 26.3-73.1 20.3-4.1 44.5 16.4 68 27.3-22.1 31.9-73.5 34.5-94.3 45.8zm34.1-64.8c1.8 3.2 15.8 42.6 15.8 42.6 21-7.9 12.2-48.5-15.8-42.6zm-0.3 47.5c-9.3-9.9-15.7-33.8-17.3-37.5-20.2 15.6 0 44.1 17.3 37.5zm292.6-296.2l7.2 25.5c75-101 161.3-12.5 148.6 15.1-103.7-19.2-82.1 63.5-92 119.1h75.8l-248.3 110.8c15.9-46.3 87.5-45.2 118.3-65.6 21.3-13.9 48.7-28.6 49.6-96.4 0.9-58.3 27.1-67.9 43.4-73.1 0-16.5-30.7-11.2-51.4 6 29.8-74.5 93.3-12.1 93.3-12.1-37.6-65.2-90.6-35-109.9-2.7-19.3 32.4-5 105.8-44.6 124-39.6 18.1-60.7-15.3-88.3-7.2-40.6 11.7-41.6 65.4-82.2 48 31.1-19.9 29.6-38.7 50.5-61.5 43.3-47.5 114.3 4.6 130-129.9zm-96.3 134.5c28.9-7.4 46.8 17.9 69.3 11.3 12.4-3.7 12.9-18 2.9-21.7 0 0 38.1-39.6 25.3-61.5-31.4 63.8-91.5 61.5-97.5 71.9zm-603.2 52.1c-0.3-44 21.8-68.3-18.4-95.5 78 16.9 1 131.7 105.7 130-23.5 34.4-87 18.4-87.3-34.5zm500.1-231.5v-52.8l14 47c31.3-9.1 71.3-25.3 70.5-53.9-1-28.6-31-40.9-31.7-58.2-0.9-26.1 89.4-11.1 89.4 73 0 59.4-20.8 77.4-20.8 77.4l75.8-39.2-131.7 170.5c0 0-40.6 62-67.7 51.1 25.7-5.1 58.7-47 58.7-83.7 0-49.5 38.9-80.4 50.8-95.7 12.6-16.6 72-129.4-33.7-156.2 68.9 70.4 7.9 102.7-50.4 124.8-55.8 20.9-38.8 106.9-56.1 136.3-18 30.5-66.7 41.6-75.8 41.3 16.4-28.4 49.9-37.7 62-70.4 12.7-34.4-4.5-84.8 46.7-111.3z"/></g></svg>