<svg version="1.2" xmlns="http://www.w3.org/2000/svg" viewBox="0 0 1592 464" width="1592" height="464">
	<title>download (4)-svg</title>
	<style>
		.s0 { fill: #c0a468 } 
	</style>
	<path id="Layer" fill-rule="evenodd" class="s0" d="m642 250l-79.9 197c-4 8.8-9.4 13.2-17.4 13.2h-56.4l84.9-210.2h-60.4c-9.4 0-20.4 6.6-20.4 16.4 0.4 10.7 11 18.7 20.1 24.1l-33.2 53c-20.3-13.9-41.1-41.6-41.8-65.4 0-31.4 80.1-78.9 115.7-78.9h206.7l-8.7 21.6c-8 20.1-20.8 29.2-38.9 29.2-0.1 0-70.3 0-70.3 0zm860.2 93.3c-24.3 2.4-45.5 4.4-72.3 21.4 8.8-14.4 21.2-29.5 21.2-41.7 0-6.4-3.7-11-9.9-11-19.6 0-19.3 35.3-31.5 59.7-11.1 22.2-33.9 41.3-33.9 57.8 0 7.3 5.2 11.7 11.4 11.7 8.9 0 12.1-5.3 15.6-16 13.8-42.5 45.1-62.9 95.3-66.7-6.7 47.3-47.8 105.3-110 105.3-35.4 0-55.4-21.9-55.4-56.2 0-27.8 10.2-54.8 25.8-74.1-8.7 3.6-24.3 7.3-34.5 7.3-6.2 0-12.7-0.8-12.7-0.8 0 64.3-65.5 123.5-128.8 123.5-38.9 0-58.2-22-52.8-57-32.7 36.5-68.8 57.3-99 57.3-31.2 0-35.3-20.4-27.2-48.9-31.7 32.9-62.7 48.9-90.7 48.9-33.8 0-36-24.8-23.3-55.9l21.2-51.4c4-9.9 0-16.5-8.4-16.5-27.7 0-49.9 49-68.8 93.9-8 19-17.5 26.3-33.1 26.3h-37.5l23.7-58.4c-39.4 40.5-84.1 61.7-124.9 61.7-28.3 0-44-13.6-44.7-39.1-2.6-67.6 60.7-130.7 130.2-130.7h39.3l-10.2 24.1c-5.8 13.5-14.5 20-27.2 20h-11.3c-31 0-58.6 33.3-58.6 61q0 22 24 22c24 0 86.6-26.4 109.9-84.4l43.3-110.9c8.7-21.9 19.1-26.3 35.9-26.3h34.7l-56 140.5c17.1-19.4 47.7-49.3 81.1-49.3 31.7 0 32.1 21.5 20.8 53.3l-22.2 54.8c-5.1 12.8-0.8 19 9.1 19 18.5 0 50.6-20.9 72.7-75.3l9.1-22.2c9.9-23 21.9-26.3 33.5-26.3h35.7l-42.6 105.1c-4.4 10.6-1.8 18.7 9.1 18.7 20 0 55-26.3 77.9-81.1l43.9-109.4c8-18.6 15.1-27.8 38.2-27.8h32.4l-79.2 197.8c-6.6 16.1-2.9 30.3 8.7 30.3 29.1 0 56.4-48.9 56.4-78.1 0-17.5-6.6-27.4-18.2-34.3l14.2-21.2c23.3 1.8 58.7 24.1 93.8 24.1 41.2 0 59.8-29.2 102.3-29.2 23.6 0 41.9 6.9 49.9 20.8 42.1 0 68-7.1 94.2-35.7-6.4 50-36.1 64.3-89.6 69.6zm-401.3-84h-35.2l14-33.8c7.6-18.2 19.7-26.3 34.9-26.3h34.5l-13.6 33.9c-6.9 17.5-18.2 26.2-34.6 26.2zm-913.9-13.4c0-9.9-5.1-14.8-13-14.8-29.1 0-30.3 57.9-44.1 86.7-22.9 47.8-52.9 70.6-52.9 92.2 0 12.3 7.4 17.4 15.4 17.4 12.8 0 16.9-6.6 21.7-22.8 23.6-79.6 67.9-102 143.5-105.6-6.1 67.7-68.3 165-165.9 165-54.4 0-85.6-30.6-85.6-84.4 0-86.9 74-184.5 172-184.5 34.2 0 61.9 10.4 73.4 29.8 115.3 4 153.8-36.7 153.8-67.7 0-24.6-22.7-32.9-59-32.9-84 0-162.6 51.7-270.1 51.7-47.7 0-76.2-16.5-76.2-44.8 0-88.5 250-35.6 250-114.8 0-5.9-3.3-11.4-7.3-15.4 12.5 2.5 43.6 9.5 43.6 32.3 0 78.1-188.1 38.2-188.1 86.4 0 11.5 9.9 17.7 28.7 17.7 74.5 0 152.8-56.8 220.6-56.8 68.9 0 91.8 38.4 91.8 74.1 0 56.9-58.8 120.9-180.7 126-47.8 2-72.2 6.3-100.6 24.6 14.6-23.1 29-40.4 29-59.4z"/>
</svg>