<?xml version="1.0" encoding="utf-8"?>
<!-- Generator: Adobe Illustrator 24.3.0, SVG Export Plug-In . SVG Version: 6.00 Build 0)  -->
<svg version="1.1" id="Vrstva_1" xmlns="http://www.w3.org/2000/svg" xmlns:xlink="http://www.w3.org/1999/xlink" x="0px" y="0px"
	 viewBox="0 0 149.6 24.1" style="enable-background:new 0 0 149.6 24.1;" xml:space="preserve">
<style type="text/css">
	.st0{fill:#282830;}
</style>
<g id="Group_756" transform="translate(-15 -13)">
	<g id="Group_753" transform="translate(62.266 13.317)">
		<path id="Path_431" class="st0" d="M6.7,1.8H4.4v7.4H2.7V1.8H0.3V0.3h6.4V1.8z"/>
		<path id="Path_432" class="st0" d="M6.5,6C6.4,4.1,7.9,2.5,9.8,2.4c1.9-0.1,3.5,1.4,3.6,3.3S12,9.2,10.1,9.3c0,0-0.1,0-0.1,0
			C8.2,9.4,6.6,8,6.5,6.3C6.5,6.2,6.5,6.1,6.5,6z M11.8,6c0-1-0.9-1.8-1.9-1.8c-1,0-1.8,0.9-1.8,1.9C8.2,7,9,7.8,10,7.8
			c1,0,1.8-0.7,1.8-1.7C11.8,6.1,11.8,6,11.8,6z"/>
		<path id="Path_433" class="st0" d="M20.1,2.8l-2.8,7.1c-0.3,1.1-1.3,1.9-2.4,1.9c-0.4,0-0.7-0.1-1-0.2l0.2-1.3
			c0.2,0.1,0.4,0.1,0.6,0.1c0.6,0,1.1-0.3,1.3-0.9l0.2-0.6l-2.6-6.1h1.7L17,7.1l1.5-4.3L20.1,2.8L20.1,2.8z"/>
		<path id="Path_434" class="st0" d="M20.4,6c-0.1-1.9,1.4-3.5,3.3-3.6c1.9-0.1,3.5,1.4,3.6,3.3s-1.4,3.5-3.3,3.6c0,0-0.1,0-0.1,0
			c-1.8,0.1-3.3-1.2-3.4-3C20.4,6.2,20.4,6.1,20.4,6z M25.6,6c0-1-0.9-1.8-1.9-1.8c-1,0-1.8,0.9-1.8,1.9c0,1,0.8,1.8,1.8,1.8
			c1,0,1.8-0.7,1.8-1.7C25.6,6.1,25.6,6,25.6,6L25.6,6z"/>
		<path id="Path_435" class="st0" d="M28.8,7.2V4.1h-1V2.8h1V1.1l1.6-0.2v2h1.7v1.3h-1.7V7c0,0.6,0.3,0.9,0.7,0.9
			c0.4,0,0.8-0.1,1.1-0.3l0.3,1.3c-0.5,0.3-1.1,0.5-1.7,0.5C29.5,9.3,28.8,8.6,28.8,7.2z"/>
		<path id="Path_436" class="st0" d="M38.9,5.2v4h-1.5V8.3c-0.5,0.7-1.3,1-2.1,1c-1,0.1-1.9-0.6-2-1.6c0-0.1,0-0.2,0-0.3
			c0-1.5,1.3-2,4.2-2.1V5.2c0-0.7-0.4-1.2-1.4-1.2c-0.7,0-1.4,0.2-2,0.7l-0.4-1.2c0.8-0.5,1.7-0.7,2.6-0.7
			C37.8,2.7,38.9,3.5,38.9,5.2z M37.3,6.7V6.3c-1.9,0-2.5,0.3-2.5,1c0,0.5,0.3,0.8,1,0.8c0.8,0.1,1.5-0.5,1.6-1.3
			C37.3,6.8,37.3,6.8,37.3,6.7L37.3,6.7z"/>
	</g>
	<g id="Group_754" transform="translate(56.656 13.317)">
		<rect id="Rectangle_417" x="0.3" y="0.3" class="st0" width="0.8" height="22.6"/>
	</g>
	<g id="Group_755" transform="translate(63.3 26.495)">
		<path id="Path_437" class="st0" d="M0.3,0.8h4.8v0.8H1.3v3.2H5v0.8H1.3v4H0.3L0.3,0.8L0.3,0.8z"/>
		<path id="Path_438" class="st0" d="M6.6,1.4c0-0.4,0.3-0.7,0.7-0.7c0.4,0,0.7,0.3,0.7,0.7C7.9,1.7,7.6,2,7.2,2
			C6.9,2,6.6,1.7,6.6,1.4C6.6,1.4,6.6,1.4,6.6,1.4z M6.8,3.4h0.9v6.3H6.8V3.4z"/>
		<path id="Path_439" class="st0" d="M15.3,5.8v3.8h-0.9V6.1c0-1.3-0.6-2-1.7-2c-1.1,0-2,0.8-2,1.9c0,0,0,0.1,0,0.1v3.6H9.9V3.4h0.9
			v1.2c0.5-0.8,1.3-1.3,2.3-1.3C14.5,3.3,15.3,4.1,15.3,5.8z"/>
		<path id="Path_440" class="st0" d="M22.4,5.8v3.9h-0.9V8.6c-0.5,0.8-1.4,1.3-2.3,1.2c-1.3,0-2.1-0.7-2.1-1.9c0-1.4,1.2-2,4.5-2
			V5.8C21.6,4.9,21,4.1,20.1,4c-0.1,0-0.2,0-0.3,0c-0.8,0-1.5,0.3-2.1,0.8L17.5,4c0.7-0.5,1.6-0.8,2.4-0.7c1.2-0.2,2.4,0.7,2.5,2
			C22.5,5.4,22.5,5.6,22.4,5.8z M21.6,7.2V6.6C18.8,6.6,18,7,18,7.9c0,0.7,0.5,1.2,1.4,1.2c1.1,0.1,2-0.7,2.1-1.7
			C21.6,7.3,21.6,7.2,21.6,7.2z"/>
		<path id="Path_441" class="st0" d="M30,5.8v3.8h-0.9V6.1c0-1.3-0.6-2-1.7-2c-1.1,0-2,0.8-2,1.9c0,0,0,0.1,0,0.1v3.6h-0.9V3.4h0.9
			v1.2c0.5-0.8,1.3-1.3,2.3-1.3C29.2,3.3,30,4.1,30,5.8z"/>
		<path id="Path_442" class="st0" d="M31.6,6.5c-0.1-1.7,1.2-3.2,2.9-3.3c0.1,0,0.2,0,0.3,0c0.8,0,1.5,0.2,2.1,0.7l-0.3,0.8
			c-0.5-0.4-1.2-0.6-1.8-0.6c-1.3,0.1-2.4,1.2-2.3,2.6c0.1,1.2,1,2.2,2.2,2.3c0.7,0,1.4-0.2,2-0.7L37,9.1c-0.7,0.5-1.5,0.7-2.3,0.7
			c-1.7,0-3.1-1.3-3.1-3C31.6,6.7,31.6,6.6,31.6,6.5z"/>
		<path id="Path_443" class="st0" d="M38.4,1.4c0-0.4,0.3-0.7,0.7-0.7c0.4,0,0.7,0.3,0.7,0.7C39.7,1.7,39.4,2,39,2
			C38.7,2,38.4,1.7,38.4,1.4C38.4,1.4,38.4,1.4,38.4,1.4z M38.6,3.4h0.9v6.3h-0.9L38.6,3.4z"/>
		<path id="Path_444" class="st0" d="M46.6,5.8v3.9h-0.9V8.6c-0.5,0.8-1.4,1.3-2.3,1.2c-1.3,0-2.1-0.7-2.1-1.9c0-1.4,1.2-2,4.5-2
			V5.8c0.1-0.9-0.6-1.7-1.5-1.7c-0.1,0-0.2,0-0.3,0c-0.8,0-1.5,0.3-2.1,0.8L41.7,4c0.7-0.5,1.6-0.8,2.4-0.7c1.2-0.2,2.4,0.7,2.5,2
			C46.7,5.4,46.7,5.6,46.6,5.8z M45.8,7.2V6.6c-2.7,0-3.6,0.4-3.6,1.3c0,0.7,0.5,1.2,1.4,1.2c1.1,0.1,2-0.7,2.1-1.7
			C45.8,7.3,45.8,7.2,45.8,7.2L45.8,7.2z"/>
		<path id="Path_445" class="st0" d="M48.8,8.3v-8h0.9v7.9c0,0.6,0.2,0.8,0.6,0.8c0.2,0,0.4-0.1,0.6-0.2L51,9.6
			c-0.3,0.2-0.6,0.2-1,0.2C49.3,9.8,48.8,9.3,48.8,8.3z"/>
		<path id="Path_446" class="st0" d="M55.1,8.9L55.3,8c0.7,0.6,1.6,0.9,2.6,0.9c1.1,0,1.9-0.5,1.9-1.6c0-1-0.8-1.3-2-1.8
			c-1.3-0.5-2.5-1-2.5-2.5c0-1.5,1.1-2.4,2.8-2.4c0.8,0,1.6,0.2,2.3,0.6l-0.2,0.9c-0.7-0.4-1.4-0.6-2.1-0.6c-1.1,0-1.8,0.6-1.8,1.5
			c0,1,0.8,1.3,2,1.8c1.3,0.5,2.5,0.9,2.5,2.5c0,1.6-1.2,2.5-2.9,2.5C56.9,9.8,55.9,9.5,55.1,8.9z"/>
		<path id="Path_447" class="st0" d="M68.1,6.6h-5.1c-0.1,1.3,0.9,2.3,2.1,2.4c0.1,0,0.2,0,0.3,0c0.8,0,1.7-0.3,2.3-0.9l0.3,0.8
			c-0.7,0.6-1.6,0.9-2.6,0.9c-1.8,0-3.3-1.5-3.2-3.3c0-1.7,1.4-3.1,3.1-3.2c1.6,0,3,1.3,3,2.9c0,0.1,0,0.2,0,0.3L68.1,6.6L68.1,6.6z
			 M67.2,5.9c-0.1-1.1-1-1.9-2-1.9c-1.1,0-2,0.8-2.1,1.9H67.2z"/>
		<path id="Path_448" class="st0" d="M73,3.4l-0.2,0.8c-0.2-0.1-0.4-0.1-0.6-0.1c-1,0-1.5,0.9-1.5,2.2v3.3h-0.9V3.4h0.9v1.1
			c0.2-0.7,0.9-1.3,1.6-1.3C72.5,3.3,72.7,3.3,73,3.4z"/>
		<path id="Path_449" class="st0" d="M79.3,3.4l-2.5,6.3h-0.9l-2.5-6.3h1l2,5.3l2.1-5.3H79.3z"/>
		<path id="Path_450" class="st0" d="M80.2,1.4c0-0.4,0.3-0.7,0.7-0.7c0.4,0,0.7,0.3,0.7,0.7c0,0.4-0.3,0.7-0.7,0.7
			C80.5,2,80.2,1.7,80.2,1.4C80.2,1.4,80.2,1.4,80.2,1.4z M80.4,3.4h0.9v6.3h-0.9V3.4z"/>
		<path id="Path_451" class="st0" d="M82.9,6.5c-0.1-1.7,1.2-3.2,2.9-3.3c0.1,0,0.2,0,0.3,0c0.8,0,1.5,0.2,2.1,0.7L88,4.7
			c-0.5-0.4-1.2-0.6-1.8-0.6c-1.3,0.1-2.4,1.2-2.3,2.6c0.1,1.2,1,2.2,2.2,2.3c0.7,0,1.4-0.2,2-0.7l0.2,0.8c-0.7,0.5-1.5,0.7-2.3,0.7
			c-1.7,0-3.1-1.3-3.1-3C82.9,6.7,82.9,6.6,82.9,6.5z"/>
		<path id="Path_452" class="st0" d="M95.3,6.6h-5.1c-0.1,1.3,0.9,2.3,2.1,2.4c0.1,0,0.2,0,0.3,0c0.8,0,1.7-0.3,2.3-0.9l0.3,0.8
			c-0.7,0.6-1.6,0.9-2.6,0.9c-1.8,0-3.3-1.5-3.2-3.3c0-1.7,1.4-3.1,3.1-3.2c1.6,0,3,1.3,3,2.9c0,0.1,0,0.2,0,0.3L95.3,6.6L95.3,6.6z
			 M94.4,5.9c-0.1-1.1-1-1.9-2-1.9c-1.1,0-2,0.8-2.1,1.9H94.4z"/>
		<path id="Path_453" class="st0" d="M96.5,9.1l0.2-0.8c0.6,0.5,1.3,0.7,2,0.7c0.9,0,1.4-0.4,1.4-1s-0.6-0.8-1.5-1.1
			c-0.9-0.3-1.9-0.6-1.9-1.8c0-1.1,0.9-1.8,2.2-1.8c0.7,0,1.3,0.2,1.9,0.5l-0.2,0.8C100.1,4.2,99.5,4,98.9,4c-0.8,0-1.3,0.4-1.3,1
			c0,0.7,0.6,0.9,1.4,1.1c1.1,0.3,2,0.7,2,1.8c0,1.1-0.8,1.9-2.3,1.9C97.9,9.8,97.2,9.6,96.5,9.1z"/>
	</g>
	<path id="Path_454" class="st0" d="M33.5,13.3c-10.1,0-18.2,5.3-18.2,11.8s8.1,11.8,18.2,11.8s18.2-5.3,18.2-11.8
		S43.6,13.3,33.5,13.3z M33.5,31.8c-1.5,0-2.7-2.9-2.8-6.6c0.9,0.1,1.8,0.1,2.8,0.1s1.9,0,2.8-0.1C36.3,28.8,35,31.8,33.5,31.8z
		 M30.9,22.2c0.4-2.6,1.4-4.5,2.6-4.5s2.2,1.9,2.6,4.5c-0.8,0.1-1.7,0.1-2.6,0.1S31.8,22.3,30.9,22.2z M33.5,15c-2,0-3.6,2.9-4.2,7
		c-3.7-0.6-6.3-1.9-6.3-3.4c0-2.1,4.7-3.7,10.5-3.7s10.5,1.7,10.5,3.7c0,1.5-2.6,2.8-6.3,3.4C37.2,17.9,35.5,15,33.5,15z M18,24.6
		c0-2,0.8-4,2.1-5.5c0,0.1,0,0.2,0,0.3c0,2.5,3.8,4.7,9,5.4c0,0.2,0,0.4,0,0.6c0,4.7,1.3,8.7,3.1,10C24.2,35,18,30.3,18,24.6z
		 M34.9,35.5c1.8-1.3,3.1-5.3,3.1-10c0-0.2,0-0.4,0-0.6c5.3-0.8,9-2.9,9-5.4c0-0.1,0-0.2,0-0.3c1.3,1.5,2.1,3.5,2.1,5.5
		C49.1,30.3,42.9,35,34.9,35.5z"/>
</g>
</svg>
